# xmcd
# Track frame offsets:
# 150
# 17774
# 33481
# 52006
# 68312
# 86519
# 99580
# 115470
# 134247
#
# Disc length: 1976 seconds
# Revision: 0
# Processed by: cddbd v1.5.1PL0 Copyright (c) Steve Scherf et al.
# Submitted via: VisiTrax 2.9.10.228 - For more info visit www.synapsa.com
#
DISCID=7907b609
DTITLE=Various Artist - Hits Monthly Nashville  PHN0501
DYEAR=1900
DGENRE=Karaoke
TTITLE0=Rascal Flatts - Bless The Broken Road
TTITLE1=Jackson, Alan - Monday Morning Church
TTITLE2=Wilson, Gretchen - When I Think About Cheatin'
TTITLE3=Womack, Lee Ann - I May Hate Myself In The Morning
TTITLE4=Byrd, Tracy - Revenge Of A Middle-Aged Woman
TTITLE5=Fairchild, Shelly - You Don't Lie Here Anymore
TTITLE6=O'Neal, Jamie - Trying To Find Atlantis
TTITLE7=Urban, Keith - You're My Better Half
TTITLE8=Chesnutt, Mark - I'm A Saint
EXTD=
EXTT0=
EXTT1=
EXTT2=
EXTT3=
EXTT4=
EXTT5=
EXTT6=
EXTT7=
EXTT8=
PLAYORDER=
